<?xml version="1.0" encoding="utf-8"?>
<!-- Generator: Adobe Illustrator 23.1.0, SVG Export Plug-In . SVG Version: 6.00 Build 0)  -->
<svg version="1.1" id="레이어_1" xmlns="http://www.w3.org/2000/svg" xmlns:xlink="http://www.w3.org/1999/xlink" x="0px"
	 y="0px" viewBox="0 0 129 166" style="enable-background:new 0 0 129 166;" xml:space="preserve">
<style type="text/css">
	.st0{fill:#00468B;}
	.st1{opacity:0.2;}
	.st2{clip-path:url(#SVGID_2_);fill:#E3007F;}
	.st3{clip-path:url(#SVGID_4_);fill:#E3007F;}
	.st4{clip-path:url(#SVGID_6_);fill:#E3007F;}
	.st5{clip-path:url(#SVGID_8_);fill:#E3007F;}
	.st6{fill:none;stroke:#E3007F;stroke-width:0.25;stroke-linecap:round;stroke-miterlimit:10;}
	.st7{fill:#E3007F;}
	.st8{clip-path:url(#SVGID_10_);fill:#E3007F;}
	.st9{fill:none;stroke:#E3007F;stroke-width:0.25;stroke-linecap:round;stroke-miterlimit:10;stroke-dasharray:1,1;}
	.st10{fill:#231815;}
	.st11{clip-path:url(#SVGID_12_);fill:#E3007F;}
	.st12{clip-path:url(#SVGID_16_);fill:#E4007F;}
	.st13{clip-path:url(#SVGID_20_);fill:#E4007F;}
	.st14{clip-path:url(#SVGID_24_);fill:#E4007F;}
	.st15{clip-path:url(#SVGID_26_);fill:#E4007F;}
	.st16{fill:none;stroke:#E4007F;stroke-width:0.25;stroke-linecap:round;stroke-miterlimit:10;}
	.st17{fill:#E4007F;}
	.st18{clip-path:url(#SVGID_28_);fill:#E4007F;}
	.st19{fill:none;stroke:#E4007F;stroke-width:0.25;stroke-linecap:round;stroke-miterlimit:10;stroke-dasharray:1,1;}
	.st20{clip-path:url(#SVGID_30_);fill:#E4007F;}
	.st21{fill:none;}
	.st22{fill:#003E8A;}
	.st23{fill:none;stroke:#00468B;stroke-width:0.5;stroke-linecap:round;stroke-miterlimit:10;stroke-dasharray:1.476,1.476;}
	.st24{fill:#FFFFFF;}
	.st25{fill-rule:evenodd;clip-rule:evenodd;fill:#004382;}
	.st26{fill:#004382;}
	.st27{clip-path:url(#SVGID_31_);fill:#E3007F;}
	.st28{clip-path:url(#SVGID_32_);fill:#E3007F;}
	.st29{clip-path:url(#SVGID_33_);fill:#E3007F;}
	.st30{clip-path:url(#SVGID_34_);fill:#E3007F;}
	.st31{fill-rule:evenodd;clip-rule:evenodd;fill:#00468B;}
	.st32{fill:#003E89;}
	.st33{clip-path:url(#SVGID_35_);fill:#E3007F;}
	.st34{clip-path:url(#SVGID_36_);fill:#E3007F;}
	.st35{fill:#00468B;stroke:#E3007F;stroke-width:0.25;stroke-linecap:round;stroke-miterlimit:10;}
</style>
<path class="st0" d="M81.4,75.5c-4.6,6.6-10.1,12.5-16.5,17.9c-21.4-17.9-32.5-42.1-35-76.3h8.8c-0.4-4.8-0.5-9.9-0.5-15.2H15.2
	c0,5.2,0.2,10.3,0.5,15.2c2.7,41.4,17.3,72.2,49.2,94.1c10-6.9,18.3-14.6,25.1-23.3C87.4,85,84.6,81.5,81.4,75.5"/>
<path class="st0" d="M93.3,46.6c3.4-8.4,5.5-18.1,6.5-29.5c0.4-4.8,0.6-9.8,0.6-15.2h14.2l0,0c0,33-6.3,59.9-21.3,81.5
	c-3.2-3.7-6-8.1-8.5-13.1c-2.7-5.5-4.9-11.6-6.7-18.3c-3.3,8.2-7.7,15.3-13.2,21.7C52.7,59.6,46,41.4,44.2,17.1
	c-0.4-4.8-0.6-9.9-0.6-15.2h14.2c0,5.4,0.2,10.4,0.6,15.2c1,11.4,3.1,21.2,6.5,29.5c3.4-8.4,5.5-18.1,6.5-29.5
	C71.8,12.3,72,7.2,72,1.9h14.2c0,5.4,0.2,10.4,0.6,15.2C87.8,28.5,89.9,38.3,93.3,46.6z"/>
<path class="st0" d="M92.8,122.1c0,6.5-0.5,10.7-1.6,14.9c-1.1-3.8-1.7-9.4-1.7-14.9h-3.3c0,5.5-0.6,11.1-1.7,14.9
	c-1.1-4.2-1.6-8.4-1.6-14.9h-3.3c0,10,1.1,14,3.9,21.9h2c1-3.1,1.9-6.1,2.3-9c0.4,2.9,1.3,5.9,2.3,9h2c2.9-7.9,3.9-11.9,3.9-21.9
	H92.8z"/>
<path class="st0" d="M125.2,122.1h-3.5v11.9c-0.3-0.8-0.9-1.5-1.4-2.1c-2.6-3.1-4-6.7-4-9.8h-3.5V144h3.5v-11.9
	c0.3,0.6,0.9,1.5,1.4,2.1c2.6,3.1,4,6.7,4,9.8h3.5V122.1z"/>
<path class="st0" d="M104.2,121.8c-3.6,0-6.2,2.2-6.2,5.4v11.7c0,1.7,0.7,5.5,6.2,5.5c5.5,0,6.2-3.8,6.2-5.5v-11.7
	C110.4,124,107.8,121.8,104.2,121.8 M106.6,138.6c0,1.4-0.9,2.3-2.4,2.3c-1.5,0-2.4-0.8-2.4-2.3v-10.8c0-1.8,0.8-2.6,2.4-2.6
	c1.6,0,2.4,0.8,2.4,2.6V138.6z"/>
<path class="st0" d="M10.8,121.8c-3.6,0-6.2,2.2-6.2,5.4v11.7c0,1.7,0.7,5.5,6.2,5.5c3.9,0,6.1-2.5,6.1-5.4v-3.4h-3.8v3.1
	c0,1.6-1.3,2.2-2.4,2.2c-1.5,0-2.4-0.8-2.4-2.3v-10.8c0-1.8,0.8-2.6,2.4-2.6c1.3,0,2.4,1,2.4,2.3v3.1H17v-3.2
	C17,124.1,14.3,121.8,10.8,121.8"/>
<path class="st0" d="M61.3,122.1h-3.5v11.9c-0.3-0.8-0.9-1.5-1.4-2.1c-2.6-3.1-4-6.7-4-9.8h-3.5V144h3.5v-11.9
	c0.3,0.6,0.9,1.5,1.4,2.1c2.6,3.1,4,6.7,4,9.8h3.5V122.1z"/>
<path class="st0" d="M75.9,129.5v-2.2c0-3.2-2.7-5.6-6.2-5.6c-3.6,0-6.2,2.2-6.2,5.4v11.7c0,2,0.5,5.5,5.5,5.5c1.9,0,3-0.8,3.4-2.2
	v1.8h3.4v-11.7h-5.6v3.3h1.8v1.8c0,1.6-0.4,3.5-2.6,3.5c-1.3,0-2.2-0.8-2.2-2.3v-10.8c0-1.8,0.8-2.6,2.4-2.6c1.3,0,2.4,1,2.4,2.3v2
	H75.9z"/>
<polygon class="st0" points="28.2,122.1 28.2,131.5 22.8,131.5 22.8,122.1 19.3,122.1 19.3,144 22.8,144 22.8,135 28.2,135 
	28.2,144 31.7,144 31.7,122.1 "/>
<path class="st0" d="M43.8,144h3.8l-5.1-21.9h-4.6L32.7,144h3.8c0,0,0.6-2.8,1.3-6.1h4.7C43.2,141.2,43.8,144,43.8,144 M38.5,134.6
	c0.8-3.8,1.6-7.6,1.6-8.5c0.1,0.9,0.8,4.6,1.6,8.5H38.5z"/>
<polygon class="st0" points="25,150.6 18.2,150.6 18.2,152.3 20.6,152.3 20.6,161.5 22.6,161.5 22.6,152.3 25,152.3 "/>
<polygon class="st0" points="53.6,159.6 53.6,150.6 51.6,150.6 51.6,161.5 57.2,161.5 57.2,159.6 "/>
<path class="st0" d="M10.8,150.6H9.1v6c-0.1-0.4-0.5-0.7-0.7-1c-1.3-1.5-2-3.3-2-4.9H4.6v10.9h1.7v-6c0.2,0.3,0.5,0.7,0.7,1
	c1.3,1.5,2,3.3,2,4.9h1.7V150.6z"/>
<path class="st0" d="M42.8,150.6h-1.7v6c-0.1-0.4-0.5-0.7-0.7-1c-1.3-1.5-2-3.3-2-4.9h-1.7v10.9h1.7v-6c0.2,0.3,0.5,0.7,0.7,1
	c1.3,1.5,2,3.3,2,4.9h1.7V150.6z"/>
<path class="st0" d="M32.3,150.4c-1.8,0-3.1,1.1-3.1,2.7v5.8c0,0.8,0.3,2.7,3.1,2.7c2.7,0,3.1-1.9,3.1-2.7v-5.8
	C35.3,151.5,34,150.4,32.3,150.4 M33.5,158.8c0,0.7-0.5,1.1-1.2,1.1c-0.7,0-1.2-0.4-1.2-1.1v-5.4c0-0.9,0.4-1.3,1.2-1.3
	c0.8,0,1.2,0.4,1.2,1.3V158.8z"/>
<rect x="26" y="150.6" class="st0" width="2" height="10.9"/>
<path class="st0" d="M16.9,161.5h1.9l-2.5-10.9h-2.3l-2.5,10.9h1.9c0,0,0.3-1.4,0.6-3.1h2.3C16.6,160.1,16.9,161.5,16.9,161.5
	 M14.3,156.8c0.4-1.9,0.8-3.8,0.8-4.2c0,0.4,0.4,2.3,0.8,4.2H14.3z"/>
<path class="st0" d="M49,161.5h1.9l-2.5-10.9H46l-2.5,10.9h1.9c0,0,0.3-1.4,0.6-3.1h2.3C48.7,160.1,49,161.5,49,161.5 M46.4,156.8
	c0.4-1.9,0.8-3.8,0.8-4.2c0,0.4,0.4,2.3,0.8,4.2H46.4z"/>
<path class="st0" d="M63.8,161.6c-1.8,0-3.1-1.2-3.1-2.8v-8.3h1.8v8.3c0,0.7,0.7,1,1.3,1c0.6,0,1.3-0.3,1.3-1v-8.3H67v8.3
	C67,160.4,65.6,161.6,63.8,161.6"/>
<path class="st0" d="M74.4,150.6h-1.7v6c-0.1-0.4-0.5-0.7-0.7-1c-1.3-1.5-2-3.3-2-4.9h-1.7v10.9h1.7v-6c0.2,0.3,0.5,0.7,0.7,1
	c1.3,1.5,2,3.3,2,4.9h1.7V150.6z"/>
<rect x="107.9" y="150.6" class="st0" width="2" height="10.9"/>
<rect x="75.8" y="150.6" class="st0" width="2" height="10.9"/>
<path class="st0" d="M81.2,161.5l-2.4-10.9h2c0,0,1.5,7.7,1.6,8.7c0.1-1.1,1.6-8.7,1.6-8.7h2l-2.4,10.9H81.2z"/>
<polygon class="st0" points="92.3,161.5 87.1,161.5 87.1,150.6 92.3,150.6 92.3,152.3 89,152.3 89,155.1 91.9,155.1 91.9,156.8 
	89,156.8 89,159.7 92.3,159.7 "/>
<path class="st0" d="M96.5,157.3h-1v4.2h-1.9v-10.9h3c2.3,0,2.9,1.4,2.9,2.7v1.4c0,1.1-0.5,1.9-1.3,2.4c0.6,1.4,1.1,2.7,1.3,4.4h-2
	C97.3,159.6,97,158.4,96.5,157.3 M95.5,155.6h1.1c0.7,0,1.1-0.3,1.1-1v-1.4c0-0.7-0.4-1-1.1-1h-1.1V155.6z"/>
<path class="st0" d="M102.2,156.1c-1-0.7-1.6-1.5-1.6-2.6v-0.4c0-1.2,0.8-2.7,3.1-2.7c2.3,0,3,1.6,3,2.7v0.8h-1.9v-0.7
	c0-0.6-0.4-1.1-1.1-1.1c-0.9,0-1.2,0.6-1.2,1.1v0.2c0,0.8,0.6,1.1,1,1.3l1.8,1.2c1,0.6,1.4,1.5,1.4,2.6v0.4c0,0.8-0.4,2.8-3.1,2.8
	c-2.7,0-3.1-1.9-3.1-2.8v-0.8h1.9v0.7c0,0.7,0.5,1.1,1.2,1.1c0.7,0,1.2-0.5,1.2-1.1v-0.2c0-0.3-0.1-0.6-0.2-0.7
	c-0.1-0.2-0.3-0.4-0.6-0.6L102.2,156.1z"/>
<path class="st0" d="M120.6,161.5v-3.4l-2.6-7.5h2c0,0,1.5,4.8,1.5,5.4c0.1-0.5,1.6-5.4,1.6-5.4h2l-2.6,7.5v3.4H120.6z"/>
<polygon class="st0" points="117.6,150.6 110.9,150.6 110.9,152.3 113.2,152.3 113.2,161.5 115.3,161.5 115.3,152.3 117.6,152.3 "/>
</svg>
